# xmcd CD database file
#
# Track frame offsets:
#	150
#	22860
#	43495
#	63215
#	86545
#	103858
#	127135
#	149615
#
# Disc length: 2181 seconds
#
# Revision: 0
# Processed by: cddbd v1.5PL3 Copyright (c) Steve Scherf et al.
# Submitted via: CDex 1.51
#
DISCID=72088308
DTITLE=小峰公子 with 齋藤ネコ・カルテット - Palette
DYEAR=1900
DGENRE=JPop
TTITLE0=エニシダ
TTITLE1=水の底の映画
TTITLE2=海の声
TTITLE3=On this planet
TTITLE4=光の庭で
TTITLE5=明日ヲ見ル丘
TTITLE6=Cadenzaの森
TTITLE7=ねむれないよるのうた
EXTD=
EXTT0=
EXTT1=
EXTT2=
EXTT3=
EXTT4=
EXTT5=
EXTT6=
EXTT7=
PLAYORDER=
